<mxfile host="app.diagrams.net" modified="2024-07-04T00:30:15.193Z" agent="Mozilla/5.0 (Windows NT 10.0; Win64; x64) AppleWebKit/537.36 (KHTML, like Gecko) Chrome/126.0.0.0 Safari/537.36" version="24.6.0" etag="Ofk7szfC0STzI_ycjPw2" type="github">
  <diagram name="Page-1" id="bmnTO-Rsshi_5VDUN1xo">
    <mxGraphModel>
      <root>
        <mxCell id="0" />
        <mxCell id="1" parent="0" />
      </root>
    </mxGraphModel>
  </diagram>
</mxfile>
